# xmcd CD database file
#
# Track frame offsets:
#	182
#	16695
#	35222
#	53932
#	66647
#	86052
#	114515
#	134342
#	151785
#	168055
#	182492
#	196540
#
# Disc length: 2819 seconds
#
# Revision: 1
# Processed by: cddbd v1.5.2PL0 Copyright (c) Steve Scherf et al.
# Submitted via: CDex 1.70beta2
#
DISCID=960b010c
DTITLE=Laura Fygi - Bewitched
DYEAR=1993
DGENRE=Jazz
TTITLE0=Dream a little dream
TTITLE1=It's crazy
TTITLE2=Good morning heartache
TTITLE3=Let there be love
TTITLE4=I only have eyes for you
TTITLE5=Bewitched
TTITLE6=The end of a love affair
TTITLE7=I love you for sentimental reasons
TTITLE8=Just one of those things
TTITLE9=Girl talk
TTITLE10=I wish you love
TTITLE11=willow weep for me
EXTD=YEAR: 1993
EXTT0=
EXTT1=
EXTT2=
EXTT3=
EXTT4=
EXTT5=
EXTT6=
EXTT7=
EXTT8=
EXTT9=
EXTT10=
EXTT11=
PLAYORDER=
